<svg width="546" height="312" viewBox="0 0 546 312" fill="none" xmlns="http://www.w3.org/2000/svg">
<mask id="mask0_1_339" style="mask-type:luminance" maskUnits="userSpaceOnUse" x="0" y="0" width="546" height="312">
<path d="M546 0H0V311.717H546V0Z" fill="white"/>
</mask>
<g mask="url(#mask0_1_339)">
<path d="M448.545 181.126C448.545 181.126 418.5 49.8838 450.623 33.4085C482.747 16.9338 453.347 131.1 463.175 168.699L448.545 181.126Z" fill="#B2C9C6"/>
<path d="M514.503 149.939C499.9 152.356 500.465 172.153 484.459 168.032C468.452 163.903 469.894 162.99 461.439 169.221C461.439 169.221 457.804 176.437 451.207 176.224C430.539 175.557 438.402 160.147 422.962 147.046C418.638 143.378 414.655 139.732 411.154 136.266C412.605 133.17 415.663 128.627 421.799 125.89C424.048 124.882 426.718 124.124 429.873 123.768C446.985 121.849 451.599 129.044 466.572 111.329C481.549 93.6094 497.219 120.061 508.631 119.468C520.042 118.874 530.309 116.068 538.131 127.226C545.952 138.392 529.106 147.531 514.503 149.939Z" fill="#B2C9C6"/>
<path d="M427.266 147.853L426.812 147.127C427.195 146.916 466.028 126.07 541.392 125.28L541.307 126.15C466.226 126.937 427.648 147.644 427.266 147.853Z" fill="#74A1BD"/>
<path d="M465.793 121.71C456.801 113.724 455.819 107.405 455.782 107.14L456.761 106.945C456.77 107.008 457.765 113.284 466.528 121.066L465.793 121.71Z" fill="#74A1BD"/>
<path d="M471.232 132.404C469.539 124.583 469.776 115.903 471.915 107.304C473.517 100.865 475.646 96.6607 475.667 96.6185L476.168 97.7884C476.085 97.9516 467.876 114.333 471.768 132.318L471.232 132.404Z" fill="#74A1BD"/>
<path d="M496.299 124.881C494.734 124.145 493.86 123.626 493.82 123.602L494.421 122.604C494.604 122.715 513.015 133.638 534.93 126.517L535.212 127.611C517.554 133.349 502.13 127.619 496.299 124.881Z" fill="#74A1BD"/>
<path d="M509.04 146.708C505.806 140.904 505.306 135.816 505.457 132.569C505.621 129.035 506.548 126.899 506.587 126.81L507.338 127.298C507.302 127.38 503.809 135.622 509.731 146.249L509.04 146.708Z" fill="#74A1BD"/>
<path d="M465.218 170.592C455.147 162.123 454.32 149.956 454.312 149.818L455.29 149.691C455.299 149.842 456.336 164.899 470.125 172.876L469.537 173.619C467.936 172.692 466.502 171.672 465.218 170.592Z" fill="#74A1BD"/>
<path d="M456.406 160.955L455.869 160.037C461.335 156.628 471.533 153.39 489.066 157.318C499.496 159.655 507.726 163.488 507.808 163.525L507.266 164.527C506.943 164.376 474.76 149.51 456.406 160.955Z" fill="#74A1BD"/>
<path d="M44.0865 232.374C52.2341 233.59 54.7008 245.705 62.6852 242.897C70.6681 240.084 69.769 239.552 75.1629 243.21C75.1629 243.21 78.1157 247.556 81.6142 247.308C92.574 246.529 86.2136 237.248 92.6386 228.96C94.438 226.64 96.0585 224.338 97.4456 222.156C96.2368 220.29 93.9656 217.568 90.3015 216.004C88.9572 215.428 87.4231 215.013 85.6864 214.852C76.2663 213.986 74.8052 218.468 64.3198 207.906C53.8307 197.341 49.1508 213.796 42.9646 213.638C36.7784 213.48 30.8954 211.949 28.2731 218.912C25.6519 225.88 35.9399 231.165 44.0865 232.374Z" fill="#CFD3A3"/>
<path d="M91.9711 230.053L92.0962 229.611C91.8541 229.489 67.3719 217.426 26.456 217.822L26.6465 218.343C67.4089 217.949 91.73 229.932 91.9711 230.053Z" fill="#C4C695"/>
<path d="M66.9108 213.792C69.8726 207.969 69.3302 203.942 69.3056 203.774L68.814 203.746C68.8195 203.785 69.3487 207.787 66.4626 213.461L66.9108 213.792Z" fill="#C4C695"/>
<path d="M64.2143 220.009C64.8905 215.892 64.314 211.035 62.5474 205.965C61.2243 202.167 59.6816 199.54 59.6662 199.514L59.4094 200.096C59.4697 200.198 65.4287 210.421 63.8737 219.888L64.2143 220.009Z" fill="#C4C695"/>
<path d="M51.0731 216.974C51.6369 216.487 51.9253 216.16 51.9381 216.145L51.4128 215.688C51.3527 215.758 45.2706 222.631 33.1738 220.695L33.3047 221.266C43.0521 222.827 48.9729 218.788 51.0731 216.974Z" fill="#C4C695"/>
<path d="M47.7321 231.773C48.803 227.78 48.611 224.46 48.2613 222.38C47.8805 220.115 47.2491 218.81 47.2226 218.755L46.9009 219.129C46.9256 219.179 49.3195 224.219 47.3587 231.53L47.7321 231.773Z" fill="#C4C695"/>
<path d="M72.0979 227.264C72.0979 227.264 68.668 169.351 52.4338 171.051C36.1995 172.75 63.6339 209.25 64.0794 226.147L72.0979 227.264Z" fill="#9BBCB6"/>
<path d="M67.2534 227.61C67.8089 215.923 65.0086 203.285 62.5619 194.741C59.9091 185.479 57.0906 178.902 57.0623 178.837L57.4167 178.61C57.4448 178.676 60.2762 185.28 62.9376 194.574C65.395 203.155 68.2073 215.854 67.6483 227.614L67.2534 227.61Z" fill="#74A1BD"/>
<path d="M92.6295 293.2C92.6295 293.2 14.6873 123.458 86.8054 82.398C144.344 49.6401 194.134 82.0832 255.71 42.1593C335.151 -9.34732 394.692 36.1941 437.737 100.308C470.039 148.422 481.013 183.001 497.216 220.465C522.452 278.815 458.047 296.271 458.047 296.271L92.6295 293.2Z" fill="#E7F3FE"/>
<mask id="mask1_1_339" style="mask-type:luminance" maskUnits="userSpaceOnUse" x="68" y="177" width="26" height="99">
<path d="M68.7556 177.904H93.0223V275.316H68.7556V177.904Z" fill="white"/>
</mask>
<g mask="url(#mask1_1_339)">
<g opacity="0.4">
<path d="M80.1306 227.602C80.1306 227.602 78.8035 233.818 79.0563 238.176C79.4152 244.366 80.1306 248.622 80.8889 249.648C81.2838 250.182 81.6938 244.113 81.39 238.237C81.1109 232.833 80.1306 227.602 80.1306 227.602Z" fill="url(#paint0_linear_1_339)"/>
</g>
</g>
<mask id="mask2_1_339" style="mask-type:luminance" maskUnits="userSpaceOnUse" x="74" y="177" width="26" height="99">
<path d="M74.8223 177.904H99.0889V275.316H74.8223V177.904Z" fill="white"/>
</mask>
<g mask="url(#mask2_1_339)">
<g opacity="0.4">
<path d="M86.1971 219.8C86.1971 219.8 84.8701 226.016 85.1228 230.374C85.4818 236.564 86.1971 240.82 86.9555 241.846C87.3503 242.38 87.7603 236.311 87.4565 230.435C87.1774 225.031 86.1971 219.8 86.1971 219.8Z" fill="url(#paint1_linear_1_339)"/>
</g>
</g>
<mask id="mask3_1_339" style="mask-type:luminance" maskUnits="userSpaceOnUse" x="64" y="179" width="25" height="99">
<path d="M64.7112 179.955H88.9778V277.367H64.7112V179.955Z" fill="white"/>
</mask>
<g mask="url(#mask3_1_339)">
<g opacity="0.4">
<path d="M76.0862 216.474C76.0862 216.474 74.7591 222.69 75.0119 227.048C75.3708 233.238 76.0862 237.494 76.8445 238.519C77.2394 239.054 77.6494 232.985 77.3455 227.109C77.0664 221.705 76.0862 216.474 76.0862 216.474Z" fill="url(#paint2_linear_1_339)"/>
</g>
</g>
<mask id="mask4_1_339" style="mask-type:luminance" maskUnits="userSpaceOnUse" x="62" y="179" width="25" height="99">
<path d="M62.689 179.955H86.9556V277.367H62.689V179.955Z" fill="white"/>
</mask>
<g mask="url(#mask4_1_339)">
<g opacity="0.4">
<path d="M74.064 230.944C74.064 230.944 72.7369 237.161 72.9897 241.519C73.3486 247.708 74.064 251.965 74.8223 252.99C75.2171 253.524 75.6271 247.456 75.3233 241.58C75.0442 236.175 74.064 230.944 74.064 230.944Z" fill="url(#paint3_linear_1_339)"/>
</g>
</g>
<mask id="mask5_1_339" style="mask-type:luminance" maskUnits="userSpaceOnUse" x="70" y="179" width="26" height="99">
<path d="M70.7777 179.955H95.0444V277.367H70.7777V179.955Z" fill="white"/>
</mask>
<g mask="url(#mask5_1_339)">
<g opacity="0.4">
<path d="M82.1527 212.775C82.1527 212.775 80.8256 218.991 81.0784 223.349C81.4373 229.539 82.1527 233.795 82.911 234.821C83.3059 235.355 83.7159 229.286 83.412 223.41C83.133 218.006 82.1527 212.775 82.1527 212.775Z" fill="url(#paint4_linear_1_339)"/>
</g>
</g>
<mask id="mask6_1_339" style="mask-type:luminance" maskUnits="userSpaceOnUse" x="68" y="179" width="26" height="99">
<path d="M68.7556 179.955H93.0223V277.367H68.7556V179.955Z" fill="white"/>
</mask>
<g mask="url(#mask6_1_339)">
<g opacity="0.4">
<path d="M80.1306 226.624C80.1306 226.624 78.8035 232.841 79.0563 237.199C79.4152 243.388 80.1306 247.645 80.8889 248.67C81.2838 249.204 81.6938 243.136 81.39 237.26C81.1109 231.855 80.1306 226.624 80.1306 226.624Z" fill="url(#paint5_linear_1_339)"/>
</g>
</g>
<path d="M312.729 248.399C312.729 248.399 327.766 256.904 329.744 258.146C337.468 262.997 336.152 265.108 335.88 265.828C335.88 265.828 337.763 270.294 337.094 270.776C335.95 271.602 335.45 270.218 332.291 265.393C331.589 264.321 329.516 261.659 328.953 261.833C328.39 262.007 330.537 264.211 331.751 265.835C332.776 267.204 334.099 273.563 332.612 273.575C331.2 273.587 329.885 268.394 328.825 266.734C328.037 265.497 325.423 262.911 324.717 263.103C324.011 263.296 326.394 266.674 326.71 267.445C327.026 268.217 328.579 272.218 327.375 272.63C326.31 272.993 325.119 269.866 323.329 267.003C321.996 264.871 316.674 260.448 315.856 260.221C314.9 259.955 315.24 262.275 316.062 264.192C316.884 266.109 317.03 268.852 315.556 268.764C314.081 268.674 313.083 263.34 310.99 259.466C308.898 255.592 309.681 251.364 309.681 251.364C309.681 251.364 311.804 248.201 312.729 248.399Z" fill="#E2A36A"/>
<path d="M307.708 250.027C306.029 249.266 296.642 247.855 289.527 247.618L288.67 256.656L306.083 255.424L307.708 250.027Z" fill="#E2A36A"/>
<path d="M212.904 162.219C194.21 166.934 199.172 264.378 214.144 274.022C228.218 284.155 271.925 264.808 296.046 258.712C296.046 258.712 300.091 252.834 299.771 247.534C285.425 245.956 239.643 253.376 234.52 252.352C229.397 251.328 231.538 157.519 212.904 162.219Z" fill="#F95DD2"/>
<path d="M200.998 252.715C200.998 276.055 203.233 278.905 208.795 289.158C184.022 287.62 155.206 288.133 130.939 290.184C139.001 267.551 137.858 275.632 151.576 259.493C151.669 259.383 151.796 259.233 151.877 259.14C152.04 258.948 152.178 258.787 152.284 258.665C152.399 258.53 152.571 258.331 152.571 258.331C159.738 245.175 137.526 230.111 128.764 204.566C119.833 178.533 123.742 164.951 123.742 164.951C156.103 150.24 175.075 146.845 211.9 162.126L213.287 184.755C213.287 184.755 223.268 202.42 222.149 210.345C221.031 218.27 200.998 240.268 200.998 252.715Z" fill="#F938C8"/>
<path d="M210.817 288.646C208.289 285.57 203.233 273.265 200.998 252.715C199.435 238.352 221.048 221.214 222.149 210.143C214.541 213.446 183.097 223.406 133.044 214.273C142.68 239.995 154.618 246.914 152.571 258.331C152.571 258.331 152.399 258.53 152.284 258.665C152.178 258.787 152.04 258.948 151.877 259.139C151.796 259.232 151.666 259.38 151.576 259.493C141.05 272.752 139.533 277.879 131.95 288.133C149.139 287.62 151.11 287.375 168.856 287.62C186.402 287.585 195.145 288.646 210.817 288.646Z" fill="#D41ECE"/>
<path d="M238.781 262.499C243.673 265.472 250.334 268.299 249.834 270.443C248.745 275.108 239.558 275.321 236.072 273.077C232.793 270.663 231.768 264.984 231.768 264.984C231.768 264.984 233.936 259.555 238.781 262.499Z" fill="#F4BE84"/>
<path d="M260.551 277.047C261.445 276.857 260.055 271.672 259.272 270.701C258.644 269.921 258.094 268.915 250.366 264.738L251.462 269.485C251.462 269.485 256.581 271.458 257.184 271.94C257.786 272.421 257.744 276.256 260.551 277.047Z" fill="#F4BE84"/>
<path d="M251.084 287.776C251.901 288.45 252.907 282.505 252.936 281.009C252.974 279.121 253.364 278.617 252.704 268.578L250.269 272.831C250.269 272.831 251.146 279.829 251.102 280.717C251.059 281.606 250.198 285.795 251.084 287.776Z" fill="#F4BE84"/>
<path d="M246.226 288.534C247.01 289.181 247.975 283.474 248.004 282.039C248.04 280.225 248.415 279.742 247.781 270.105L245.444 274.188C245.444 274.188 246.285 280.904 246.243 281.758C246.202 282.611 245.376 286.632 246.226 288.534Z" fill="#F4BE84"/>
<path d="M240.578 285.704C241.242 286.251 242.059 281.421 242.083 280.206C242.114 278.671 242.431 278.262 241.895 270.107L239.917 273.561C239.917 273.561 240.629 279.247 240.594 279.968C240.558 280.69 239.859 284.094 240.578 285.704Z" fill="#F4BE84"/>
<path d="M229.083 266.668L219.788 264.941L222.466 257.79C222.466 257.79 227.791 259.672 235.272 263.457L229.083 266.668Z" fill="#F4BE84"/>
<path d="M139.391 166.924C121.551 167.564 105.502 256.259 117.661 267.631C133.495 284.225 182.606 273.611 210.094 273.785C210.094 273.785 214.725 269.344 215.272 264.589C195.257 254.708 144.25 254.17 139.728 252.294C135.206 250.418 157.173 166.286 139.391 166.924Z" fill="#F95DD2"/>
<path d="M120.068 264.607C110.382 255.817 118.194 200.012 130.727 176.015C116.926 197.191 107.592 259.156 117.841 268.457C133.914 284.804 183.609 274.129 211.44 274.2C211.44 274.2 213.015 272.608 214.453 270.41C186.44 270.55 135.978 280.788 120.068 264.607Z" fill="#D41DCD"/>
<path d="M207.624 160.529C177.129 147.572 157.841 150.478 131.052 161.809C135.915 164.879 152.288 173.668 177.805 171.086C197.082 169.135 204.654 164.047 207.624 160.529Z" fill="#F4BE84"/>
<path d="M225.221 81.571C225.221 81.571 222.76 86.4581 222.524 93.7157C222.288 100.973 225.604 116.023 213.595 124.62C213.595 124.62 217.093 121.277 219.736 109.37C222.379 97.462 219.613 95.4461 220.918 85.4471C221.974 77.3473 225.221 81.571 225.221 81.571Z" fill="#0D014A"/>
<path d="M123.892 86.2195C130.995 76.8407 146.862 77.0191 159.331 86.6178C171.801 96.2166 176.152 111.601 169.049 120.979C161.946 130.358 146.08 130.179 133.61 120.58C121.14 110.982 116.789 95.5984 123.892 86.2195Z" fill="#0D014A"/>
<path d="M214.696 96.4874C214.696 96.4874 236.029 72.3035 233.256 60.1165C225.598 26.4714 157.039 7.24749 158.936 32.8366C139.205 19.0426 110.702 95.273 158.203 117.913C202.933 139.864 214.696 96.4874 214.696 96.4874Z" fill="#120070"/>
<path d="M151.955 100.602C151.955 100.602 159.514 133.792 151.61 156.364L173.909 161.081L187.772 161.639C187.772 161.639 182.727 145.01 184.391 125.909C185.612 111.906 151.955 100.602 151.955 100.602Z" fill="#F4BE84"/>
<path d="M187.052 140.756C190.33 140.901 196.089 135.67 199.705 133.047C207.376 127.485 214.763 120.403 213.297 102.074C213.297 102.074 233.442 58.7975 197.733 48.9563C162.023 39.1157 150.517 75.1759 154.292 104.304C158.067 133.434 183.943 140.62 187.052 140.756Z" fill="#F4BE84"/>
<path d="M187.61 47.498C162.083 47.9955 146.695 127.842 186.558 141.492C186.43 141.502 186.283 141.554 186.162 141.548C183.132 141.41 157.918 134.162 154.238 104.789C150.897 78.1218 159.895 45.8147 187.61 47.498Z" fill="#E2A36A"/>
<path d="M144.079 97.376C143.092 101.455 145.592 105.6 149.662 106.636C153.732 107.671 157.832 105.204 158.818 101.125C159.805 97.0466 157.305 92.901 153.234 91.8655C149.164 90.8301 145.065 93.2976 144.079 97.376Z" fill="#E2A36A"/>
<path d="M152.54 94.472C153.593 94.7473 154.417 95.4084 155.06 96.2102C154.694 95.9718 154.317 95.7426 153.875 95.6272C151.64 95.0448 149.388 96.4268 148.844 98.7144C148.301 101.001 149.673 103.329 151.907 103.911C152.252 104.001 152.587 103.963 152.926 103.963C152.08 104.251 151.176 104.386 150.243 104.142C147.634 103.462 146.033 100.746 146.667 98.0755C147.302 95.4057 149.931 93.7922 152.54 94.472Z" fill="#D17A4A"/>
<path d="M170.268 93.3309C170.237 93.2535 170.328 93.1848 170.313 93.1073C169.151 92.8592 169.899 95.9063 175.562 97.6711C179.574 98.7877 181.639 98.0155 181.639 98.0155C177.513 98.5888 171.321 95.9484 170.268 93.3309Z" fill="black"/>
<path d="M185.2 94.2202C186.009 86.2376 168.835 89.0146 170.274 92.8273C171.796 96.8619 184.509 101.037 185.2 94.2202Z" fill="#F7EEE2"/>
<path d="M176.068 91.373C175.364 93.387 176.594 95.4538 178.816 95.9892C181.038 96.5249 183.409 95.3261 184.113 93.312C184.817 91.2984 183.587 89.2316 181.365 88.6958C179.144 88.1601 176.772 89.3589 176.068 91.373Z" fill="black"/>
<path d="M184.731 93.7218C187.387 86.823 171.867 86.6133 167.98 89.3508L170.613 90.5468C173.627 88.3862 185.818 88.1547 184.731 93.7218Z" fill="black"/>
<path d="M200.963 95.1401C204.226 88.5246 216.809 95.9018 212.084 100.38C208.6 103.681 198.029 101.09 200.963 95.1401Z" fill="#F7EEE2"/>
<path d="M209.349 97.7355C208.624 99.7022 206.349 100.85 204.269 100.3C202.188 99.7494 201.089 97.7092 201.814 95.7425C202.54 93.7767 204.814 92.6284 206.895 93.1789C208.975 93.7294 210.074 95.7689 209.349 97.7355Z" fill="black"/>
<path d="M212.87 98.5192L216.178 98.2509C215.034 92.7961 204.25 87.4855 200.691 94.6246L200.878 94.688C203.992 89.2177 214.408 94.3238 212.87 98.5192Z" fill="#040000"/>
<path d="M200.476 97.7557C200.371 98.2285 200.173 100.273 203.013 101.558C206.872 103.305 209.987 101.833 209.987 101.833C206.207 102.783 200.613 101.161 200.476 97.7557Z" fill="black"/>
<path d="M203.654 83.3592C203.654 83.3592 195.733 88.783 195.46 98.0877C195.186 107.393 201.973 111.041 201.973 111.041C201.973 111.041 199.073 117.159 193.544 116.024C188.015 114.89 198.966 110.879 198.966 110.879C198.966 110.879 192.369 104.406 192.809 97.7089C193.433 88.1886 203.654 83.3592 203.654 83.3592Z" fill="#D38753"/>
<path d="M179.492 49.9074C179.492 49.9074 168.937 51.4977 164.146 64.9788C159.356 78.4599 160.008 93.4571 156.786 93.4745C155.124 93.4838 151.866 89.6284 151.866 89.6284C151.866 89.6284 147.024 42.572 173.438 43.241L179.492 49.9074Z" fill="#130751"/>
<path d="M186.722 78.0284C186.684 78.8377 183.388 78.1186 176.934 78.2351C171.04 78.3417 166.488 79.396 166.466 78.5861C166.444 77.7762 170.031 75.6861 176.943 75.4868C183.623 75.2938 186.795 76.4665 186.722 78.0284Z" fill="#0D014A"/>
<path d="M218.925 89.9359C218.701 90.4949 217.466 88.2284 213.179 85.4304C209.532 83.0501 204.939 82.1057 205.157 81.4141C205.818 79.3218 211.423 81.0837 214.088 82.9618C219.03 86.4427 219.188 89.2803 218.925 89.9359Z" fill="#0D014A"/>
<path d="M178.178 119.318C178.006 119.552 177.181 119.257 176.94 119.086C176.699 118.916 176.642 118.588 176.814 118.354C176.985 118.12 177.32 118.069 177.561 118.239C177.802 118.409 178.349 119.083 178.178 119.318Z" fill="#93271C"/>
<path d="M201.389 122.821C201.505 123.085 202.374 122.982 202.645 122.871C202.917 122.76 203.042 122.455 202.925 122.191C202.807 121.926 202.492 121.802 202.22 121.913C201.949 122.024 201.271 122.556 201.389 122.821Z" fill="#93271C"/>
<path d="M178.16 118.904L201.78 123.603C201.78 123.603 196.364 129.06 188.783 127.692C181.2 126.324 178.16 118.904 178.16 118.904Z" fill="#9A6335"/>
<path d="M178.16 118.904L201.78 123.603C201.78 123.603 196.364 129.06 188.783 127.692C181.2 126.324 178.16 118.904 178.16 118.904Z" fill="#93271C"/>
<path d="M179.728 119.862L198.878 123.624C198.878 123.624 193.835 128.27 187.611 126.582C181.388 124.894 179.728 119.862 179.728 119.862Z" fill="#F7EEE2"/>
<path d="M179.514 119.862L198.9 123.213L197.501 124.195C197.501 124.195 195.665 122.881 189.274 121.876C182.883 120.871 180.164 121.069 180.164 121.069C180.164 121.069 179.69 120.217 179.514 119.862Z" fill="#D5B698"/>
<path d="M217.484 53.6C217.484 53.6 214.504 60.4859 203.12 60.7009C176.813 61.1978 168.887 60.2608 157.525 79.5317C157.525 79.5317 157.776 55.3297 174.031 46.4129C183.653 41.1352 199.815 38.7103 217.484 53.6Z" fill="#120651"/>
<path d="M200.931 56.2275C210.216 56.5339 213.395 52.8699 214.342 51.2817C214.657 51.509 214.977 51.7805 215.293 52.0186C215.628 52.8522 216.097 53.9252 216.754 55.2454C215.217 57.2488 211.407 60.7476 203.253 60.9019C176.866 61.4006 168.916 60.4735 157.525 79.5816C157.525 79.5816 157.64 70.8044 161.316 61.9111C162.378 61.6543 163.413 61.3266 164.368 60.8439C175.122 55.4033 189.137 55.8386 200.931 56.2275Z" fill="#0A003D"/>
<path d="M164.086 61.5376C164.73 61.1859 165.42 60.926 166.088 60.6218C165.327 61.9848 164.621 63.5109 164.013 65.2446C159.272 78.7653 159.918 93.8065 156.73 93.8239C155.085 93.8332 151.86 89.9664 151.86 89.9664C151.86 89.9664 150.403 75.4515 153.55 62.6338C157.193 63.5247 160.993 63.2201 164.086 61.5376Z" fill="#130751"/>
<path d="M186.582 62.1773C186.582 62.1773 173.949 59.9679 167.675 73.6893C161.402 87.4102 164.11 102.926 162.829 113.226C161.548 123.527 153.31 128.16 153.31 128.16C153.31 128.16 157.92 120.201 159.494 112.617C161.837 101.329 161.755 92.2692 160.702 82.2079C157.082 66.6535 168.658 52.6622 186.582 62.1773Z" fill="#0C004A"/>
<path d="M523.735 292.171H22.5534C20.2349 292.171 18.3552 290.265 18.3552 287.913C18.3552 285.562 20.2349 283.656 22.5534 283.656H523.735C526.054 283.656 527.933 285.562 527.933 287.913C527.933 290.265 526.054 292.171 523.735 292.171Z" fill="#2E5B9A"/>
<path d="M70.4847 277.63C67.6353 269.159 66.2137 260.19 66.3123 251.238L66.3113 251.163L78.0442 250.948L87.1194 250.783L99.4252 250.561L99.4287 250.864C99.7962 261.972 97.817 273.151 93.6659 283.433L72.7869 283.669C71.9376 281.689 71.1707 279.674 70.4847 277.63Z" fill="#8494F4"/>
<path d="M407.965 266.413L405.133 280.426C404.738 282.359 403.074 283.76 401.125 283.797L206.647 285.6C205.067 285.632 203.919 284.086 204.385 282.55C204.934 280.744 206.571 279.502 208.44 279.481L277.534 278.703L300.021 171.138C300.835 167.252 304.177 164.441 308.093 164.354L423.079 161.734C426.201 161.666 428.574 164.551 427.941 167.653L407.965 266.413Z" fill="#323B6E"/>
<path d="M348.162 218.61C347.507 224.811 351.932 229.838 358.047 229.838C364.162 229.838 369.65 224.811 370.306 218.61C370.961 212.409 366.535 207.382 360.421 207.382C354.306 207.382 348.818 212.409 348.162 218.61Z" fill="white"/>
<path d="M472.115 282.186L471.215 249.754C470.47 249.353 469.956 248.579 469.946 247.675C469.932 246.347 470.994 245.259 472.318 245.244C472.535 245.242 472.743 245.279 472.944 245.33L517.067 199.578C516.93 199.277 516.846 198.947 516.842 198.594C516.836 198.071 517 197.592 517.276 197.197L453.044 111.553C453.707 111.204 454.371 110.858 455.037 110.498L519.294 196.17C520.583 196.198 521.627 197.241 521.641 198.54C521.656 199.865 520.593 200.955 519.266 200.97C519.129 200.972 518.996 200.952 518.862 200.932L474.596 246.835C474.683 247.084 474.743 247.342 474.746 247.62C474.756 248.56 474.217 249.374 473.435 249.775L474.334 282.162L474.392 284.23L474.455 286.479C474.472 287.099 473.99 287.617 473.376 287.634C473.372 287.634 473.365 287.635 473.358 287.635C472.754 287.641 472.254 287.156 472.237 286.544L472.173 284.248L472.115 282.186Z" fill="#323B6E"/>
<path d="M474.392 284.23C484.989 284.231 493.379 285.661 493.399 287.527C493.42 289.471 484.334 291.15 473.107 291.277C461.875 291.403 452.754 289.929 452.733 287.985C452.712 286.09 461.343 284.448 472.173 284.248L472.237 286.543C472.254 287.155 472.754 287.641 473.358 287.635C473.365 287.635 473.372 287.634 473.376 287.634C473.99 287.617 474.472 287.099 474.455 286.479L474.392 284.23Z" fill="#323B6E"/>
<path d="M429.022 109.844C434.453 118.364 435.623 127.392 431.638 130.001C427.653 132.613 420.019 127.821 414.592 119.297C409.162 110.773 407.992 101.749 411.977 99.14C415.962 96.5278 423.595 101.32 429.022 109.844Z" fill="#FF5C6C"/>
<path d="M421.807 110.481C421.807 115.061 425.469 118.775 429.986 118.775C434.503 118.775 438.165 115.061 438.165 110.481C438.165 105.9 434.503 102.186 429.986 102.186C425.469 102.186 421.807 105.9 421.807 110.481Z" fill="white"/>
<path d="M453.043 111.553C450.212 113.02 447.373 114.434 444.317 116.231C442.6 117.236 440.867 118.264 439.471 119.689C436.436 122.793 435.214 127.582 431.652 130.022L431.638 130.001C435.623 127.392 434.453 118.364 429.022 109.844C423.595 101.32 415.962 96.5278 411.977 99.14C414.469 96.8081 418.042 96.743 421.394 96.2247C429.803 94.9262 437 89.6675 444.247 85.1527C446.029 84.0467 447.955 82.939 450.041 83.0008C452.268 83.0614 454.239 84.4456 455.878 85.9725C459.092 88.9667 463.604 95.6636 463.686 103.169C463.527 104.994 462.534 106.023 460.703 107.198C458.757 108.448 456.887 109.509 455.037 110.498C454.37 110.858 453.707 111.204 453.043 111.553ZM448.906 110.14C449.541 109.812 449.796 109.023 449.473 108.378C449.15 107.73 448.371 107.472 447.732 107.8L443.116 110.177C442.481 110.504 442.226 111.294 442.549 111.942C442.872 112.587 443.651 112.845 444.29 112.517L448.906 110.14ZM446.611 104.461C447.246 104.134 447.501 103.344 447.177 102.696C446.854 102.052 446.076 101.793 445.437 102.121L440.824 104.498C440.185 104.826 439.931 105.615 440.254 106.26C440.581 106.908 441.359 107.166 441.995 106.835L446.611 104.461ZM443.311 99.4207C443.947 99.0931 444.201 98.3035 443.878 97.6591C443.555 97.0109 442.776 96.753 442.137 97.0806L437.521 99.4576C436.886 99.7852 436.631 100.575 436.954 101.223C437.277 101.867 438.056 102.126 438.695 101.798L443.311 99.4207ZM439.643 94.7761C440.283 94.4485 440.537 93.6589 440.211 93.0108C439.888 92.3663 439.109 92.108 438.473 92.4356L433.857 94.813C433.222 95.1406 432.967 95.9302 433.29 96.5747C433.613 97.2228 434.392 97.4812 435.028 97.1536L439.643 94.7761Z" fill="#323B6E"/>
<path d="M449.473 108.378C449.796 109.023 449.541 109.812 448.906 110.14L444.29 112.517C443.651 112.845 442.872 112.586 442.549 111.942C442.226 111.294 442.481 110.504 443.116 110.177L447.732 107.8C448.371 107.472 449.15 107.73 449.473 108.378Z" fill="#CC2C3D"/>
<path d="M447.177 102.696C447.501 103.344 447.246 104.134 446.611 104.461L441.995 106.835C441.359 107.166 440.581 106.908 440.254 106.26C439.931 105.615 440.185 104.826 440.824 104.498L445.437 102.121C446.076 101.793 446.854 102.052 447.177 102.696Z" fill="#CC2C3D"/>
<path d="M443.878 97.6591C444.201 98.3035 443.947 99.0931 443.311 99.4207L438.695 101.798C438.056 102.126 437.277 101.867 436.954 101.223C436.631 100.575 436.886 99.7852 437.521 99.4576L442.137 97.0806C442.776 96.753 443.555 97.0109 443.878 97.6591Z" fill="#CC2C3D"/>
<path d="M440.211 93.0107C440.537 93.6589 440.283 94.4485 439.643 94.7761L435.028 97.1536C434.392 97.4812 433.613 97.2228 433.29 96.5746C432.967 95.9302 433.222 95.1406 433.857 94.813L438.473 92.4356C439.109 92.108 439.888 92.3663 440.211 93.0107Z" fill="#CC2C3D"/>
</g>
<defs>
<linearGradient id="paint0_linear_1_339" x1="78.1084" y1="255.928" x2="81.0973" y2="223.636" gradientUnits="userSpaceOnUse">
<stop stop-color="#040404"/>
<stop offset="0.23" stop-color="#828282"/>
<stop offset="0.46" stop-color="white"/>
<stop offset="0.61" stop-color="white"/>
<stop offset="1" stop-color="white"/>
</linearGradient>
<linearGradient id="paint1_linear_1_339" x1="84.1749" y1="248.126" x2="87.1638" y2="215.834" gradientUnits="userSpaceOnUse">
<stop stop-color="#040404"/>
<stop offset="0.23" stop-color="#828282"/>
<stop offset="0.46" stop-color="white"/>
<stop offset="0.61" stop-color="white"/>
<stop offset="1" stop-color="white"/>
</linearGradient>
<linearGradient id="paint2_linear_1_339" x1="74.064" y1="244.8" x2="77.0529" y2="212.508" gradientUnits="userSpaceOnUse">
<stop stop-color="#040404"/>
<stop offset="0.23" stop-color="#828282"/>
<stop offset="0.46" stop-color="white"/>
<stop offset="0.61" stop-color="white"/>
<stop offset="1" stop-color="white"/>
</linearGradient>
<linearGradient id="paint3_linear_1_339" x1="72.0417" y1="259.271" x2="75.0306" y2="226.979" gradientUnits="userSpaceOnUse">
<stop stop-color="#040404"/>
<stop offset="0.23" stop-color="#828282"/>
<stop offset="0.46" stop-color="white"/>
<stop offset="0.61" stop-color="white"/>
<stop offset="1" stop-color="white"/>
</linearGradient>
<linearGradient id="paint4_linear_1_339" x1="80.1305" y1="241.101" x2="83.1194" y2="208.809" gradientUnits="userSpaceOnUse">
<stop stop-color="#040404"/>
<stop offset="0.23" stop-color="#828282"/>
<stop offset="0.46" stop-color="white"/>
<stop offset="0.61" stop-color="white"/>
<stop offset="1" stop-color="white"/>
</linearGradient>
<linearGradient id="paint5_linear_1_339" x1="78.1084" y1="254.951" x2="81.0973" y2="222.659" gradientUnits="userSpaceOnUse">
<stop stop-color="#040404"/>
<stop offset="0.23" stop-color="#828282"/>
<stop offset="0.46" stop-color="white"/>
<stop offset="0.61" stop-color="white"/>
<stop offset="1" stop-color="white"/>
</linearGradient>
</defs>
</svg>
